<svg width="21" height="18" viewBox="0 0 21 18" fill="none" xmlns="http://www.w3.org/2000/svg">
<path fill-rule="evenodd" clip-rule="evenodd" d="M5.65196 1.18515C4.42435 1.18515 3.29661 1.67508 2.4762 2.5648C1.64359 3.46795 1.18499 4.7164 1.18499 6.0803C1.18499 7.51938 1.71984 8.80642 2.91905 10.2534C4.07812 11.652 5.80215 13.1212 7.79831 14.8224L7.80202 14.8255C8.49987 15.4202 9.29096 16.0944 10.1143 16.8144C10.9426 16.0931 11.7349 15.4177 12.4341 14.8221C14.4302 13.1209 16.154 11.652 17.3131 10.2534C18.5121 8.80642 19.047 7.51938 19.047 6.0803C19.047 4.71639 18.5884 3.46795 17.7558 2.5648C16.9355 1.67508 15.8076 1.18515 14.5802 1.18515C13.6809 1.18515 12.8552 1.47102 12.1262 2.03474C11.4765 2.53733 11.0239 3.17267 10.7586 3.61722C10.6221 3.84582 10.382 3.98228 10.116 3.98228C9.85004 3.98228 9.60986 3.84583 9.47341 3.61722C9.20822 3.17267 8.75565 2.53733 8.1058 2.03474C7.37677 1.47102 6.55111 1.18515 5.65197 1.18515H5.65196ZM10.116 18C9.82797 18 9.55028 17.8956 9.33387 17.7061C8.51655 16.9914 7.72855 16.3198 7.03332 15.7274L7.02977 15.7243C4.99147 13.9873 3.23133 12.4873 2.00665 11.0096C0.63765 9.35764 0 7.79137 0 6.08031C0 4.41787 0.57004 2.88417 1.60502 1.76153C2.65234 0.62561 4.08941 0 5.65198 0C6.81985 0 7.8894 0.36922 8.83083 1.09733C9.30594 1.46486 9.7366 1.91466 10.116 2.43932C10.4956 1.91466 10.9261 1.46486 11.4014 1.09733C12.3428 0.36922 13.4123 0 14.5802 0C16.1426 0 17.5798 0.62561 18.6272 1.76153C19.6621 2.88418 20.232 4.41788 20.232 6.08031C20.232 7.79137 19.5945 9.35764 18.2255 11.0094C17.0009 12.4873 15.2409 13.9872 13.2029 15.724C12.5064 16.3173 11.7172 16.99 10.898 17.7064C10.6817 17.8957 10.4039 18 10.116 18L10.116 18Z" fill="black"/>
</svg>
