<svg width="215" height="30" viewBox="0 0 215 30" fill="none" xmlns="http://www.w3.org/2000/svg">
<path fill-rule="evenodd" clip-rule="evenodd" d="M211.458 4.0198L211.935 4.02274C211.935 4.02274 212.336 4.0106 212.336 4.41431C212.336 4.81802 212.263 4.90378 211.458 4.90084V4.0198H211.458ZM211.057 3.72299V6.17033H211.461L211.455 5.19746H211.841L212.336 6.17336L212.728 6.17033C212.728 6.17033 212.713 6.06637 212.238 5.13021C212.189 5.02008 212.746 5.08733 212.74 4.45103C212.734 3.81472 212.11 3.7229 212.11 3.7229H211.057V3.72299ZM211.841 3.10508C212.836 3.10508 213.642 3.93394 213.642 4.95282C213.642 5.9717 212.836 6.79752 211.841 6.79752C210.845 6.79752 210.039 5.97169 210.039 4.95282C210.039 3.93394 210.845 3.10508 211.841 3.10508ZM211.847 2.69824C210.631 2.69824 209.644 3.69068 209.644 4.91005C209.644 6.12951 210.631 7.11872 211.847 7.11872C213.063 7.11872 214.049 6.12951 214.049 4.91005C214.049 3.69059 213.063 2.69825 211.847 2.69825V2.69824ZM200.014 22.3643C199.965 23.6859 200.968 25.864 204.615 25.8151C208.261 25.7662 208.237 23.3922 208.237 23.3922C208.303 20.9797 202.134 21.065 202.167 20.896C193.944 19.6968 194.838 14.3004 194.838 14.3004C194.745 12.8565 195.942 7.2178 203.893 7.28877C212.68 7.36708 213.382 14.1529 213.217 14.435H207.698C207.698 14.435 207.965 11.4478 204.138 11.4982C200.963 11.5401 200.613 12.6607 200.613 12.6607C199.195 15.6966 205.689 15.5438 207.515 16.2033C207.515 16.2033 213.964 17.2495 214.086 22.1687C214.208 27.0878 210.537 29.9512 204.248 29.9512C199.922 29.7528 194.694 28.3491 194.263 22.3645H200.014V22.3643ZM180.521 12.2948C183.951 12.2948 186.734 15.0779 186.734 18.508C186.734 21.9381 183.951 24.7212 180.521 24.7212C177.091 24.7212 174.308 21.9381 174.308 18.5079C174.308 15.0779 177.091 12.2948 180.521 12.2948H180.521ZM180.469 7.23805C178.286 7.24099 176.1 7.88943 174.136 9.18065C168.885 12.6333 167.456 19.6556 170.942 24.8558C174.429 30.0559 181.52 31.4748 186.771 28.0221L186.786 29.4721H192.268V7.449L186.792 7.4399V9.17448C184.832 7.87827 182.652 7.23511 180.469 7.23805ZM155.512 12.2886C158.971 12.2886 161.78 15.0808 161.78 18.5233C161.78 21.9658 158.971 24.761 155.512 24.761C152.053 24.761 149.247 21.9657 149.247 18.5232C149.247 15.0807 152.053 12.2887 155.512 12.2887V12.2886ZM161.747 0C161.747 0 161.74 9.09186 161.747 9.12857C157.839 6.61192 153.078 6.63121 149.18 9.16225C143.897 12.592 142.428 19.6187 145.9 24.8374C149.372 30.0561 156.473 31.5008 161.756 28.0709V29.469L167.201 29.4719L167.198 0H161.747ZM136.273 7.44607L136.267 29.475H141.85V7.44617H136.273V7.44607ZM136.273 0.00617V5.5861H141.85V0.00617H136.273H136.273ZM121.916 12.304C125.395 12.304 128.218 15.0903 128.218 18.5263C128.218 21.9626 125.395 24.7518 121.916 24.7518C118.437 24.7518 115.611 21.9626 115.611 18.5263C115.611 15.0902 118.437 12.304 121.916 12.304ZM128.239 0.00617L128.243 9.21109L128.233 9.22039C124.274 6.585 119.385 6.58539 115.425 9.22039C110.181 12.7095 108.794 19.7408 112.329 24.917C115.858 30.0861 123.01 31.514 128.252 28.0435L128.242 29.4722H133.725L133.727 0.00627H128.24L128.239 0.00617ZM96.8158 12.2796C100.298 12.2796 103.124 15.0743 103.124 18.5172C103.124 21.9601 100.298 24.7549 96.8158 24.7549C93.3334 24.7549 90.5046 21.9601 90.5046 18.5171C90.5046 15.0742 93.3334 12.2796 96.8158 12.2796H96.8158ZM96.7056 7.23805C94.4523 7.23688 92.1971 7.92644 90.1986 9.30302C85.0299 12.8637 83.6775 19.9674 87.265 25.0975C90.8285 30.1933 97.9299 31.5372 103.078 28.0833L103.087 29.4691L108.569 29.472L108.566 7.44599H103.084L103.087 9.11635C101.257 7.82416 98.908 7.23914 96.7056 7.23807V7.23805ZM0.00382 29.5672V24.7719L77.8286 24.7735L77.8282 29.472L0.00381 29.5672H0.00382ZM0.00225 20.8571L0.00548 16.1591L77.8286 16.1585L77.829 20.8574L0.00226 20.8571L0.00225 20.8571ZM0 7.44695L77.8253 7.45136L77.8297 12.2499L0 12.2411V7.44705V7.44695Z" fill="#000C22"/>
</svg>
