<svg width="104" height="30" viewBox="0 0 104 30" fill="none" xmlns="http://www.w3.org/2000/svg">
<path fill-rule="evenodd" clip-rule="evenodd" d="M91.1275 30C97.0558 30 104.043 27.793 103.496 20.6346C102.892 14.28 96.2793 12.6707 92.974 12.01C89.0814 11.1893 86.1084 10.4383 86.1084 7.66753C86.1084 5.71277 87.8589 4.29069 91.2225 4.53445C94.2954 4.7575 95.5895 6.63603 95.9443 8.44868C95.9951 8.74608 96.1335 8.96255 96.4713 8.96537L101.998 9.01243C102.418 9.01525 102.549 8.79691 102.497 8.49762C101.414 1.87383 95.8803 0 90.7877 0C85.7027 0 79.5759 1.42866 79.1411 7.75411C79.126 7.99881 79.1203 8.23974 79.1203 8.47597C78.3109 6.7932 77.1439 5.24784 75.64 3.87941C72.8636 1.37596 69.4021 0.03482 65.6271 0.00188H65.502C63.6987 0.00188 61.9341 0.3341 60.256 0.99291C58.5503 1.66757 56.9809 2.64551 55.6237 3.87941C54.1997 5.17443 53.0751 6.62756 52.2713 8.20586C51.0742 1.82206 45.6325 0 40.6161 0C35.9481 0 30.4009 1.20749 29.1906 6.30568V1.24513C29.1901 0.97521 28.9711 0.75667 28.7012 0.75667H23.4967C23.2268 0.75719 23.0082 0.97615 23.0082 1.24607V2.61073C23.0082 2.84037 22.8548 2.92037 22.6675 2.78672C20.8163 1.4437 18.0776 0.00281 14.7817 0.00281C12.9295 0.00281 11.1611 0.32845 9.5244 0.97031C7.8868 1.61405 6.33015 2.59379 4.90149 3.88316C3.27519 5.36264 2.03664 7.04918 1.22443 8.89571C0.41222 10.7422 0 12.8052 0 15.0263C0 17.0997 0.36517 19.0441 1.0842 20.8012C1.80324 22.5583 2.89779 24.1837 4.33869 25.6331C5.77865 27.0824 7.38989 28.1836 9.12442 28.9083C10.8589 29.6301 12.7704 29.9962 14.809 29.9962C18.3119 29.9962 20.9405 28.5045 22.6628 27.1483C22.8529 27.0034 23.0082 27.0815 23.0082 27.3187V28.752C23.0082 29.0212 23.2285 29.2414 23.4976 29.2414H28.7022C28.9719 29.2404 29.1901 29.0218 29.1906 28.752V23.924C31.6442 29.6932 37.8962 29.9991 40.9568 29.9991C46.0729 29.9991 51.973 28.3521 53.1438 23.3C53.7066 24.1361 54.3486 24.9162 55.0609 25.6293C57.8504 28.4368 61.5058 29.9464 65.6365 29.9915H65.8059C67.7673 29.9915 69.6599 29.6151 71.4312 28.8706C73.2194 28.1145 74.8409 27.013 76.2028 25.6293C77.2216 24.6136 78.0917 23.459 78.7872 22.1998C80.6422 29.6376 87.7874 29.999 91.1275 29.999L91.1275 30ZM80.3824 12.7074C81.6087 14.3431 83.8223 15.5543 87.4184 16.3637C90.784 17.1693 96.6248 17.6813 96.6248 21.1372C96.6248 23.5466 94.8497 25.2472 91.4927 25.1907C88.8208 25.1907 85.874 24.2411 85.1964 20.5669C85.1399 20.2158 84.9743 20.0709 84.7042 20.0634L79.7537 19.9975C80.2761 18.4568 80.5424 16.7882 80.5424 15.0245C80.5422 14.2493 80.4887 13.4752 80.3824 12.7074L80.3824 12.7074ZM14.7101 24.498C10.3997 24.498 6.45064 21.1052 6.45064 15.0273C6.45064 10.2585 9.41149 5.63747 14.7384 5.63747C17.0461 5.63747 22.8972 6.42803 22.8972 15.0273C22.8972 23.6491 16.7882 24.498 14.7092 24.498H14.7101ZM41.322 25.1898C38.6492 25.1898 35.7043 24.2402 35.0257 20.5659C34.9683 20.2149 34.8027 20.07 34.5335 20.0624L29.1906 19.9909V10.5465C29.8927 13.3144 32.2183 15.2306 37.2478 16.3628C40.6143 17.1684 46.4541 17.6804 46.4541 21.1363C46.4541 23.5456 44.68 25.2463 41.322 25.1898ZM50.7212 15.0235C50.7212 15.1515 50.7269 15.2776 50.7307 15.4038C48.3496 13.2363 44.9068 12.4297 42.8034 12.009C38.9117 11.1884 35.9387 10.4373 35.9387 7.66658C35.9387 5.71182 37.6892 4.28974 41.0519 4.5335C44.1247 4.75655 45.4188 6.63508 45.7736 8.44773C45.8245 8.74513 45.9619 8.9616 46.3007 8.96442L51.8271 9.01148C51.8535 9.01148 51.876 9.00866 51.8996 9.00677C51.1203 10.8241 50.7213 12.8476 50.7213 15.0235L50.7212 15.0235ZM71.5583 21.9824C70.0053 23.6482 68.0111 24.4943 65.6319 24.4943C63.2517 24.4943 61.2574 23.6482 59.7054 21.9824C58.2231 20.3956 57.3714 17.8583 57.3714 15.0235C57.3714 12.2566 58.2325 9.75405 59.7308 8.15598C61.2988 6.49015 63.2837 5.64029 65.63 5.63371C67.98 5.6403 69.9649 6.49015 71.5319 8.15598C73.0321 9.75405 73.8913 12.2566 73.8913 15.0235C73.8913 17.8583 73.0406 20.3956 71.5582 21.9824H71.5583Z" fill="#000C22"/>
</svg>
