<svg width="136" height="30" viewBox="0 0 136 30" fill="none" xmlns="http://www.w3.org/2000/svg">
<path fill-rule="evenodd" clip-rule="evenodd" d="M132.388 23.6842V17.8542C125.708 19.0688 122.429 21.0121 122.429 23.9271C122.429 24.8988 122.793 25.6275 123.522 26.2348C124.251 26.8421 125.101 27.2065 125.951 27.2065C126.923 27.2065 128.137 26.8421 129.352 26.2348C130.445 25.6275 131.538 24.7773 132.388 23.6842ZM122.672 13.6032L120.121 12.2672C121.822 9.23077 124.372 7.77328 128.016 7.77328C130.081 7.77328 131.781 8.25911 132.996 9.23077C134.575 10.3239 135.303 12.0243 135.303 14.2105V24.8988C135.303 26.7206 135.425 28.1782 135.789 29.5142H132.753L132.388 26.5992C130.324 28.7854 128.016 30 125.344 30C123.643 30 122.186 29.5142 121.093 28.5425C119.878 27.4494 119.271 25.9919 119.271 24.17C119.271 21.8624 120.243 20.0405 122.186 18.7045C124.129 17.3684 127.53 16.2753 132.145 15.5466V14.2105C132.145 11.6599 130.688 10.3239 127.773 10.3239C125.344 10.3239 123.522 11.417 122.672 13.6033V13.6032ZM100.809 29.3927V0H103.724V18.9474L112.348 8.13765H115.87L109.676 16.0324L116.72 29.3927H113.198L107.611 18.583L103.724 22.9555V29.3927L100.809 29.3927ZM78.3398 0H81.2548V11.0526H81.3763C83.3196 8.8664 85.3844 7.77328 87.6921 7.77328C89.3925 7.77328 90.8499 8.25911 91.9431 9.10931C93.1576 10.2024 93.7649 11.7814 93.7649 13.9676V29.3927H90.8499V14.0891C90.8499 11.5385 89.7568 10.3239 87.4491 10.3239C85.3844 10.3239 83.441 11.417 81.3763 13.4818V29.2712H78.4613L78.3398 0ZM57.6921 25.749L59.9998 24.0486C61.5787 26.2348 63.522 27.3279 66.0726 27.3279C67.5301 27.3279 68.7447 26.9636 69.4734 26.2348C70.2022 25.6275 70.5666 24.7773 70.5666 23.8057C70.5666 22.3482 69.4734 21.2551 67.2872 20.5263C65.3439 19.7976 63.2791 19.1903 61.3358 18.4615C59.1496 17.3684 58.1779 15.7895 58.2994 13.6032C58.2994 11.7814 59.0281 10.3239 60.2427 9.35223C61.4572 8.38057 63.1577 7.89474 65.2224 7.89474C66.5585 7.89474 68.0159 8.25911 69.352 8.98786C70.688 9.71661 71.7811 10.5668 72.5099 11.6599L70.4451 13.4818C68.8661 11.5385 67.0443 10.5668 64.9795 10.5668C62.4289 10.5668 61.2143 11.6599 61.2143 13.7247C61.2143 14.9393 62.3075 15.9109 64.3722 16.6397C68.1374 17.8542 70.0807 18.583 70.3236 18.7045C72.3884 19.919 73.4815 21.6194 73.4815 23.8057C73.4815 25.749 72.7528 27.3279 71.1738 28.421C69.8378 29.3927 68.1374 30 66.0726 30C62.4289 29.7571 59.6354 28.421 57.6921 25.749ZM45.9107 29.3927V8.13766H48.8257V12.3887H48.9471C49.7973 10.8097 50.769 9.71661 51.6192 9.10932C52.7123 8.38058 54.1698 7.89475 55.7487 7.89475V10.8097C54.0483 10.8097 52.5909 11.417 51.4977 12.6316C50.5261 13.7247 49.5544 15.3036 48.8257 17.6113V29.3927L45.9107 29.3927ZM27.3277 16.7611H38.1374C38.1374 14.8178 37.6516 13.2389 36.8014 12.0243C35.9512 10.8097 34.6151 10.2024 33.1576 10.2024C31.4572 10.2024 30.1212 10.8097 29.1495 11.9028C28.0564 13.2389 27.5706 14.8178 27.3277 16.7611ZM39.4734 23.6842L41.7811 24.8988C40.9309 26.4777 39.9593 27.5709 38.9876 28.2996C37.5301 29.2713 35.7082 29.8785 33.6435 29.8785C31.0929 29.8785 28.9066 29.0283 27.3277 27.3279C25.3844 25.3846 24.5342 22.5911 24.5342 18.9474C24.5342 15.5465 25.2629 12.8745 26.8418 10.9312C28.4208 8.98784 30.4856 8.01618 33.1576 8.01618C35.4653 8.01618 37.4086 8.74492 38.8661 10.3239C40.4451 12.0243 41.1738 14.4534 41.1738 17.6113V19.5546H27.3277C27.3277 21.8623 27.9349 23.8056 29.1495 25.2631C30.3641 26.7206 31.8216 27.4494 33.6434 27.4494C36.1941 27.2065 38.1374 25.9919 39.4734 23.6842L39.4734 23.6842ZM3.27911 2.67207V12.5101H8.98761C11.2953 12.5101 12.9957 12.0243 14.2103 10.9312C15.3034 10.081 15.7892 8.8664 15.7892 7.53037C15.7892 4.25102 13.9674 2.67207 10.2022 2.67207H3.27911ZM3.27911 15.3036V26.5992H9.35198C14.0888 26.5992 16.518 24.7773 16.518 21.2551C16.518 19.4332 15.7892 17.9757 14.4532 16.8826C13.1172 15.7895 11.1738 15.3036 8.86615 15.3036H3.27911ZM-0.000244141 29.3927V0H10.8095C13.3601 0 15.3034 0.72874 16.7609 2.06478C18.2184 3.40081 18.9471 5.22268 18.9471 7.28745C18.9471 10.6883 17.2467 12.8745 13.9674 14.0891V14.2105C15.6678 14.5749 17.0038 15.5466 18.0969 16.8826C19.19 18.2186 19.6759 19.7976 19.6759 21.6194C19.6759 26.8421 16.1536 29.5142 8.98762 29.5142H-0.000234141L-0.000244141 29.3927Z" fill="#000C22"/>
</svg>
