<svg width="18" height="17" viewBox="0 0 18 17" fill="none" xmlns="http://www.w3.org/2000/svg">
<path fill-rule="evenodd" clip-rule="evenodd" d="M5.02398 1.55348C3.93277 1.55348 2.93034 1.98898 2.20108 2.77984C1.46098 3.58264 1.05334 4.69237 1.05334 5.90473C1.05334 7.18391 1.52876 8.32795 2.59473 9.61413C3.62502 10.8574 5.15748 12.1633 6.93185 13.6755L6.93514 13.6782C7.55545 14.2069 8.25864 14.8062 8.9905 15.4461C9.72675 14.8049 10.431 14.2047 11.0526 13.6752C12.8268 12.163 14.3591 10.8574 15.3894 9.61412C16.4552 8.32794 16.9307 7.18391 16.9307 5.90472C16.9307 4.69236 16.523 3.58263 15.7829 2.77983C15.0538 1.98897 14.0513 1.55347 12.9602 1.55347C12.1608 1.55347 11.4269 1.80758 10.7789 2.30866C10.2014 2.75541 9.79906 3.32015 9.5632 3.71531C9.44191 3.91851 9.22841 4.0398 8.99201 4.0398C8.7556 4.0398 8.54211 3.91851 8.42082 3.71531C8.1851 3.32015 7.78281 2.75541 7.20516 2.30866C6.55713 1.80758 5.82321 1.55347 5.02398 1.55347V1.55348ZM8.99201 16.5C8.73598 16.5 8.48915 16.4073 8.29678 16.2388C7.57027 15.6035 6.86983 15.0065 6.25185 14.4799L6.24869 14.4772C4.43687 12.9332 2.8723 11.5998 1.78369 10.2863C0.5668 8.81791 0 7.42567 0 5.90473C0 4.42701 0.50671 3.06372 1.42668 2.06581C2.35763 1.0561 3.63503 0.5 5.02398 0.5C6.06209 0.5 7.0128 0.8282 7.84962 1.47541C8.27194 1.8021 8.65475 2.20192 8.99201 2.66829C9.3294 2.20192 9.71207 1.8021 10.1345 1.47541C10.9714 0.8282 11.9221 0.5 12.9602 0.5C14.349 0.5 15.6265 1.0561 16.5575 2.06581C17.4774 3.06372 17.984 4.42701 17.984 5.90473C17.984 7.42567 17.4174 8.81791 16.2005 10.2862C15.1119 11.5998 13.5474 12.933 11.7359 14.4769C11.1168 15.0043 10.4153 15.6023 9.6871 16.239C9.49487 16.4073 9.2479 16.5 8.99201 16.5V16.5Z" fill="black"/>
</svg>
