<svg width="82" height="40" viewBox="0 0 82 40" fill="none" xmlns="http://www.w3.org/2000/svg">
<path fill-rule="evenodd" clip-rule="evenodd" d="M65.011 22.655C60.8379 22.655 59.2875 20.8191 59.2875 18.5959V18.5258H63.1015C63.1015 19.5787 63.9322 20.111 65.1 20.111C66.1314 20.111 66.661 19.7688 66.661 19.1137C66.661 17.3793 59.3907 19.0406 59.3907 14.1383C59.3907 11.515 61.8389 9.97798 65.6631 9.97798C69.0667 9.97798 71.1309 11.6668 71.1309 13.6821H67.6393C67.6393 13.1006 66.911 12.5197 65.6713 12.5197C64.4095 12.5197 63.9195 12.9654 63.9195 13.3585C63.9195 15.2706 71.5225 13.3952 71.5225 18.3841C71.5215 20.7869 69.72 22.655 65.0112 22.655M59.0746 11.1935L57.4972 13.0998H56.8461L57.5606 11.0249H56.1177V8.25204H59.075L59.0746 11.1936V11.1935ZM54.8699 22.3817H50.3162V10.2174H54.8699V22.3817ZM43.8479 22.408H40.104L34.1282 10.2407H39.3715L42.578 17.2663H42.661L45.8703 10.2407H49.6323L43.8477 22.4078L43.8479 22.408ZM28.7701 22.8016C24.1056 22.8016 21.6342 20.3916 21.6342 16.3679C21.6342 12.3453 24.2063 9.94043 28.5121 9.94043C33.1045 9.94043 35.3879 12.8811 35.3879 16.3679C35.3879 16.6435 35.368 16.9071 35.3307 17.1063H26.6391C26.6391 18.8183 27.596 19.8671 29.1145 19.8671C30.413 19.8671 31.4062 19.4993 31.6173 18.4333H35.4095C34.9496 21.1895 33.0119 22.8018 28.7701 22.8018M21.4151 22.3873H9.98122V10.3464H14.5334V19.3126H21.4151V22.3873ZM0 2e-05L7.76566 36.7131L8.35622 36.4078C16.616 32.0694 24.8631 32.3285 30.3197 33.3116C36.2581 34.3746 40.2794 36.4936 40.3278 36.5081L40.5431 36.6302L40.7647 36.5237C50.5135 32.1882 58.5645 32.438 63.6003 33.4078C69.0542 34.4649 72.2544 36.5738 72.2874 36.598L72.9014 37.0047L73.0593 36.2776L81.0248 0L0 2e-05ZM28.5474 12.5441C27.2596 12.5441 26.8057 13.749 26.8057 14.9441H30.2811C30.2811 13.6093 29.8434 12.5441 28.5474 12.5441M69.1387 37.9196H68.7355V37.2827H69.126C69.285 37.2827 69.3972 37.2942 69.4515 37.3194C69.5203 37.3514 69.5765 37.384 69.5992 37.4285C69.6347 37.4831 69.6472 37.5403 69.6472 37.6012C69.6472 37.7063 69.6144 37.7752 69.5447 37.838C69.4723 37.8847 69.341 37.9196 69.1385 37.9196M69.5841 38.2825C69.5332 38.2323 69.472 38.1938 69.4048 38.1697C69.5841 38.1524 69.7371 38.086 69.8489 37.9731C69.9557 37.8577 70.0033 37.7196 70.0033 37.5674C70.0033 37.4601 69.9719 37.3514 69.9081 37.2529C69.8456 37.1594 69.7544 37.0887 69.6482 37.0515C69.5364 37.014 69.3582 36.998 69.1264 36.998H68.4009V39.1141H68.7359V38.2263H68.9328C69.0546 38.2228 69.1338 38.2415 69.2023 38.2934C69.2858 38.358 69.4048 38.5225 69.5527 38.7799L69.7373 39.1143H70.1506L69.8997 38.7036C69.7684 38.5087 69.6716 38.368 69.5838 38.2823M70.6536 38.8404C70.5003 39.1017 70.2971 39.3061 70.0421 39.4529C69.7923 39.6033 69.5272 39.6767 69.2499 39.6767C68.9679 39.6776 68.6913 39.6002 68.4507 39.4531C68.1963 39.3084 67.9866 39.0964 67.8446 38.8404C67.7057 38.5904 67.6423 38.318 67.6423 38.0269C67.6423 37.7448 67.7133 37.4638 67.8526 37.2019C67.9927 36.9368 68.2011 36.7352 68.4565 36.593C68.7133 36.448 68.9783 36.3789 69.2503 36.3789C69.5207 36.3789 69.7828 36.4476 70.0425 36.593C70.2899 36.7356 70.486 36.9368 70.654 37.2019C70.7881 37.4561 70.8575 37.7395 70.856 38.0269C70.8556 38.3182 70.7918 38.5904 70.6536 38.8404M70.2054 36.2977C69.8997 36.135 69.5769 36.0495 69.2503 36.0495C68.9145 36.0495 68.6062 36.135 68.3012 36.2977C67.9853 36.4761 67.7498 36.7131 67.5625 37.0333C67.3878 37.3518 67.3129 37.6862 67.3129 38.0265C67.3129 38.3684 67.3878 38.6927 67.5625 39.0082C67.7404 39.3237 67.9738 39.5698 68.2854 39.7383C68.5957 39.9167 68.9069 40 69.2499 40C69.5862 40.0019 69.9166 39.9114 70.205 39.7383C70.5131 39.57 70.7635 39.3237 70.9194 39.008C71.0938 38.6927 71.1777 38.3684 71.1777 38.0265C71.1777 37.6862 71.0932 37.3518 70.9192 37.0332C70.7524 36.7132 70.5108 36.4755 70.2054 36.2977" fill="#000C22"/>
</svg>
