<svg width="10" height="10" viewBox="0 0 10 10" fill="none" xmlns="http://www.w3.org/2000/svg">
<path fill-rule="evenodd" clip-rule="evenodd" d="M2.35787 2.62785C3.04049 1.94524 3.84123 1.61343 4.80608 1.61343C5.77077 1.61343 6.57167 1.94524 7.25441 2.62785C7.93702 3.3106 8.26898 4.1115 8.26898 5.07605C8.26898 6.04089 7.93702 6.84165 7.25441 7.5244C6.57166 8.20715 5.77077 8.53897 4.80608 8.53897C3.84153 8.53897 3.04077 8.20701 2.35787 7.5244C1.67512 6.84179 1.34316 6.04089 1.34316 5.07605C1.34316 4.1115 1.67511 3.3106 2.35787 2.62785ZM4.80608 9.65239C6.06344 9.65239 7.15207 9.20143 8.04184 8.31167C8.93131 7.42206 9.38242 6.33357 9.38242 5.07605C9.38242 3.81897 8.93145 2.73033 8.0417 1.84043C7.15194 0.95096 6.06331 0.5 4.80609 0.5C3.54857 0.5 2.46007 0.95097 1.57046 1.84058C0.680846 2.73019 0.229736 3.81883 0.229736 5.07605C0.229736 6.33357 0.680846 7.4222 1.57046 8.31181C2.46037 9.20128 3.549 9.65239 4.80609 9.65239H4.80608Z" fill="black"/>
</svg>
