<svg width="18" height="24" viewBox="0 0 18 24" fill="none" xmlns="http://www.w3.org/2000/svg">
<path fill-rule="evenodd" clip-rule="evenodd" d="M15.6799 22.0125C15.3918 22.326 14.9989 22.5 14.5713 22.5H3.00033C2.57433 22.5 2.17984 22.326 1.89334 22.011C1.60533 21.696 1.46883 21.2895 1.50784 20.8635L2.72134 7.50002H4.28582V9.75002C4.28582 10.164 4.62182 10.5 5.03583 10.5C5.44982 10.5 5.78583 10.164 5.78583 9.75002V7.50002H11.7858V9.75002C11.7858 10.164 12.1218 10.5 12.5358 10.5C12.9498 10.5 13.2858 10.164 13.2858 9.75002V7.50002H14.8503L16.0653 20.865C16.1043 21.2895 15.9678 21.6975 15.6799 22.0125V22.0125ZM5.78583 4.50001C5.78583 2.84551 7.1313 1.50001 8.78582 1.50001C9.59132 1.50001 10.3458 1.81051 10.9113 2.37451C11.4768 2.93851 11.7858 3.69451 11.7858 4.50001V6.00001H5.78583V4.50001ZM17.5609 20.7285L16.2844 6.6825C16.2484 6.2955 15.9243 6 15.5358 6H13.2858V4.5C13.2858 3.294 12.8194 2.1615 11.9718 1.314C11.1243 0.4665 9.99184 0 8.78583 0C6.30485 0 4.28583 2.019 4.28583 4.5V6H2.03583C1.64736 6 1.32334 6.2955 1.28886 6.6825L0.0123333 20.7285C-0.0641667 21.5655 0.217853 22.4025 0.784843 23.0235C1.35185 23.6445 2.15886 24 3.00034 24H14.5728C15.4144 24 16.2213 23.6445 16.7884 23.0235C17.3553 22.4025 17.6358 21.5655 17.5609 20.7285Z" fill="black"/>
</svg>
