<svg width="30" height="28" viewBox="0 0 30 28" fill="none" xmlns="http://www.w3.org/2000/svg">
<path fill-rule="evenodd" clip-rule="evenodd" d="M0.115718 1.0806C2.05616 1.0806 3.66039 1.58008 3.66039 2.18523C3.66039 6.98798 3.65075 25.7907 3.66039 25.7907C3.66039 26.4343 2.0802 27.1499 0.134879 27.1499L0.130239 27.9952H13.108V27.2075C11.182 27.2075 9.62099 26.4391 9.62099 25.7955V0.84526H13.3627C16.9649 0.84526 19.8851 3.83737 19.8851 7.23291C19.8851 10.6284 16.9649 13.3852 13.3578 13.3852H10.7689C10.7689 13.3852 19.5395 26.6648 19.5537 26.6648C19.8995 27.1691 20.0726 28 20.0726 28H29.5297V27.2123C27.7091 27.2123 26.7584 26.4583 26.23 25.7955L17.7861 14.778C21.8399 14.5091 24.9764 11.2336 24.9764 7.34337C24.9764 3.28025 21.4845 -2e-05 17.1762 -2e-05H0.115698V1.0806" fill="#000C22"/>
</svg>
