<svg width="167" height="26" viewBox="0 0 167 26" fill="none" xmlns="http://www.w3.org/2000/svg">
<path fill-rule="evenodd" clip-rule="evenodd" d="M74.796 21.9337C72.578 21.9337 70.8529 20.0853 70.8529 17.8673C70.8529 16.2654 71.9619 14.91 73.4405 14.4171L78.6159 20.0853C77.6301 21.1943 76.2747 21.9337 74.796 21.9337ZM83.5448 19.4692C83.5448 18.6066 83.668 17.8673 83.9145 17.128C84.4074 15.7725 85.1467 14.7867 86.1325 14.6635H86.2557V10.5971C83.1751 10.5971 80.7107 12.6919 79.9714 15.5261L73.5638 8.50236C72.9476 7.88625 72.7012 7.27013 72.7012 6.65402C72.7012 6.03791 72.9476 5.42179 73.4405 4.9289C73.9334 4.43601 74.5496 4.18956 75.1657 4.18956C75.7818 4.18956 76.3979 4.43601 76.8908 4.9289C77.1372 5.17535 77.2604 5.42179 77.3837 5.66824L81.0804 3.8199C80.7107 3.20379 80.341 2.58767 79.8481 1.97156C78.6159 0.73933 76.8908 0 75.1657 0C73.4405 0 71.8386 0.61611 70.4832 1.97156C69.251 3.20379 68.5116 4.92891 68.5116 6.65402C68.5116 8.25592 69.1278 9.98103 70.36 11.2133C68.142 12.5687 66.5401 15.0332 66.5401 17.8673C66.5401 22.3033 70.1135 26 74.6728 26C77.2605 26 79.6017 24.891 81.2036 23.1659L82.9287 25.0142H88.7202L83.5448 19.4692H83.5448ZM153.782 12.4455V4.80569H155.137C158.587 4.80569 160.313 6.03792 160.313 8.50237C160.313 11.8294 157.602 12.5687 155.26 12.5687H153.782V12.4455ZM158.464 20.9479C159.08 22.3033 159.82 23.6588 160.682 25.0142H166.104C164.872 23.1659 163.64 20.8246 162.654 18.8531L160.805 15.1564C161.914 14.5403 162.9 13.6777 163.64 12.5687C164.379 11.3365 164.749 9.98103 164.749 8.37914C164.749 3.57345 161.175 0.73933 155.384 0.73933H149.469V25.1374H153.782V16.8815C153.782 16.8815 154.891 16.8815 156.369 16.6351C156.862 17.6208 157.602 19.2227 158.464 20.9479L158.464 20.9479ZM133.327 14.6635H139.241L136.284 7.27014L133.327 14.6635ZM148.36 25.1374H143.308L140.843 18.7299H131.848L129.384 25.1374H124.701L134.682 0.73934H138.133L148.36 25.1374ZM123.469 25.1374H108.436V0.61611H123.469V4.80568H112.872V10.5971H122.853V14.6635H112.872V20.9479H123.469V25.1374ZM94.7581 10.5972H96.4832C98.0851 10.5972 100.057 10.1043 100.057 7.63981C100.057 6.40758 99.687 4.68246 96.2367 4.68246H94.6348L94.7581 10.5972ZM94.7581 20.9479H97.0993C101.659 20.9479 101.659 18.4834 101.659 17.7441C101.659 17.0047 101.659 14.5403 97.2225 14.5403H94.7581L94.7581 20.9479ZM97.9619 25.1374H90.4453V0.61611H95.0045C97.5922 0.61611 99.687 0.73933 101.166 1.72511C103.384 2.95734 104.493 5.05212 104.493 7.6398C104.493 9.36492 103.753 10.8436 102.521 11.9526C104.862 13.1848 106.095 15.1564 106.095 17.9905C106.218 21.9336 102.521 25.1374 97.9619 25.1374V25.1374ZM65.0614 25.1374H53.1088V0.61611H57.5448V20.9479H65.0614V25.1374ZM51.3837 25.1374H39.431V0.61611H43.8671V20.9479H51.3836L51.3837 25.1374ZM26.9855 25.5071C21.3173 25.5071 17.4974 21.564 17.4974 15.6493V0.61611H21.9334V15.5261C21.9334 19.346 23.7818 21.3175 27.1088 21.3175C31.2983 21.3175 32.1609 18.1137 32.1609 15.5261V0.61611H36.5969V15.6493C36.4737 21.564 32.6538 25.5071 26.9856 25.5071L26.9855 25.5071ZM4.31256 14.7867H6.03768C9.11825 14.7867 10.5969 12.199 10.5969 9.7346C10.5969 7.27015 8.99502 4.68247 5.54479 4.68247H4.31256V14.7867ZM4.31256 25.1374H-0.000244141V0.61611H5.66801C11.8291 0.61611 15.0329 5.17535 15.0329 9.73459C15.0329 14.2938 11.7059 18.8531 6.28412 18.8531H4.31256V25.1374Z" fill="#000C22"/>
</svg>
