<svg width="15" height="20" viewBox="0 0 15 20" fill="none" xmlns="http://www.w3.org/2000/svg">
<path fill-rule="evenodd" clip-rule="evenodd" d="M13.0665 18.3438C12.8265 18.605 12.499 18.75 12.1428 18.75H2.50026C2.14526 18.75 1.81652 18.605 1.57777 18.3425C1.33776 18.08 1.22401 17.7412 1.25652 17.3862L2.26777 6.24999H3.5715V8.12499C3.5715 8.46999 3.8515 8.74999 4.19651 8.74999C4.5415 8.74999 4.82151 8.46999 4.82151 8.12499V6.24999H9.82151V8.12499C9.82151 8.46999 10.1015 8.74999 10.4465 8.74999C10.7915 8.74999 11.0715 8.46999 11.0715 8.12499V6.24999H12.3753L13.3878 17.3875C13.4203 17.7412 13.3065 18.0812 13.0665 18.3437V18.3438ZM4.82152 3.75C4.82152 2.37125 5.94275 1.25 7.32151 1.25C7.99276 1.25 8.62151 1.50875 9.09276 1.97875C9.56402 2.44875 9.82152 3.07875 9.82152 3.75V5H4.82152V3.75ZM14.634 17.2738L13.5703 5.56875C13.5403 5.24625 13.2703 5 12.9465 5H11.0715V3.75C11.0715 2.745 10.6828 1.80125 9.97652 1.095C9.27027 0.38875 8.32652 0 7.32151 0C5.25402 0 3.57151 1.6825 3.57151 3.75V5H1.69651C1.37278 5 1.10277 5.24625 1.07403 5.56875L0.0102627 17.2738C-0.0534873 17.9713 0.181523 18.6688 0.654013 19.1863C1.12651 19.7038 1.79902 20 2.50025 20H12.144C12.8453 20 13.5178 19.7038 13.9903 19.1863C14.4628 18.6688 14.6965 17.9713 14.634 17.2738H14.634Z" fill="black"/>
</svg>
