<svg width="10" height="10" viewBox="0 0 10 10" fill="none" xmlns="http://www.w3.org/2000/svg">
<path fill-rule="evenodd" clip-rule="evenodd" d="M2.35781 2.62785C3.04043 1.94524 3.84117 1.61343 4.80602 1.61343C5.77071 1.61343 6.57161 1.94524 7.25435 2.62785C7.93696 3.3106 8.26892 4.1115 8.26892 5.07605C8.26892 6.04089 7.93696 6.84165 7.25435 7.5244C6.5716 8.20715 5.77071 8.53897 4.80602 8.53897C3.84147 8.53897 3.04071 8.20701 2.35781 7.5244C1.67506 6.84179 1.3431 6.04089 1.3431 5.07605C1.3431 4.1115 1.67505 3.3106 2.35781 2.62785ZM4.80602 9.65239C6.06337 9.65239 7.15201 9.20143 8.04178 8.31167C8.93124 7.42206 9.38236 6.33357 9.38236 5.07605C9.38236 3.81897 8.93139 2.73033 8.04164 1.84043C7.15188 0.95096 6.06325 0.5 4.80603 0.5C3.54851 0.5 2.46001 0.95097 1.5704 1.84058C0.680785 2.73019 0.229675 3.81883 0.229675 5.07605C0.229675 6.33357 0.680785 7.4222 1.5704 8.31181C2.46031 9.20128 3.54894 9.65239 4.80603 9.65239H4.80602Z" fill="black"/>
</svg>
