<svg width="16" height="11" viewBox="0 0 16 11" fill="none" xmlns="http://www.w3.org/2000/svg">
<path fill-rule="evenodd" clip-rule="evenodd" d="M14.1469 8.81265C13.7412 9.1988 13.2025 9.38647 12.5001 9.38647H3.35159C2.64898 9.38647 2.11031 9.1988 1.70472 8.81277C1.30681 8.43399 1.11343 7.91697 1.11343 7.23245C1.11343 6.87643 1.12517 6.5249 1.14865 6.18745C1.17155 5.85636 1.21838 5.49264 1.28781 5.10621C1.35638 4.72453 1.44364 4.36634 1.54743 4.04206C1.64702 3.73113 1.78284 3.42322 1.95128 3.12664C2.11204 2.84397 2.29701 2.60146 2.50111 2.40606C2.69202 2.22326 2.93265 2.07366 3.21619 1.96145C3.47842 1.85766 3.77312 1.80085 4.09304 1.79232C4.13203 1.81303 4.20147 1.85261 4.31396 1.92596C4.54285 2.07511 4.80667 2.2453 5.09833 2.43158C5.4271 2.64121 5.85067 2.83051 6.35671 2.9939C6.87407 3.16115 7.40172 3.24611 7.92545 3.24611C8.44919 3.24611 8.97698 3.16115 9.49405 2.99402C10.0005 2.83038 10.424 2.64121 10.7532 2.43128C11.0516 2.24053 11.3081 2.07528 11.537 1.92597C11.6494 1.85277 11.7189 1.81304 11.7579 1.79233C12.0779 1.80086 12.3726 1.85767 12.635 1.96146C12.9184 2.07367 13.159 2.22342 13.3499 2.40607C13.5541 2.60132 13.739 2.84384 13.8998 3.1268C14.0684 3.42323 14.2043 3.73126 14.3038 4.04192C14.4077 4.36664 14.4951 4.72466 14.5635 5.10607C14.6328 5.49323 14.6798 5.85711 14.7027 6.18761V6.1879C14.7263 6.52402 14.7382 6.87545 14.7384 7.23246C14.7382 7.91711 14.5448 8.434 14.1469 8.81266V8.81265ZM15.8134 6.11002C15.7877 5.73983 15.7358 5.33597 15.6594 4.90949C15.5823 4.47985 15.483 4.07367 15.3642 3.70244C15.2412 3.31874 15.0744 2.93981 14.8678 2.57668C14.6537 2.1998 14.4021 1.8716 14.1197 1.60155C13.8244 1.319 13.4629 1.09188 13.0448 0.926204C12.6282 0.761364 12.1665 0.677884 11.6726 0.677884C11.4787 0.677884 11.2911 0.757454 10.9289 0.993324C10.7059 1.13868 10.4451 1.30684 10.154 1.49282C9.90516 1.6514 9.56798 1.79998 9.15152 1.93453C8.7452 2.06598 8.33265 2.13268 7.92532 2.13268C7.51828 2.13268 7.10572 2.06598 6.69912 1.93453C6.28309 1.80013 5.94577 1.65156 5.69731 1.49297C5.40899 1.30872 5.14806 1.14058 4.92178 0.993174C4.55982 0.757304 4.37224 0.677734 4.17829 0.677734C3.68427 0.677734 3.22272 0.761364 2.80626 0.926334C2.38849 1.09174 2.02682 1.31889 1.73125 1.60171C1.44887 1.87191 1.19722 2.19993 0.98326 2.57669C0.77698 2.93982 0.60999 3.3186 0.48707 3.70261C0.36835 4.07384 0.26905 4.47986 0.19193 4.9095C0.11539 5.33542 0.06364 5.73938 0.03798 6.11049C0.01276 6.47333 0 6.85094 0 7.23247C0 8.22426 0.31528 9.02721 0.93701 9.61934C1.55105 10.2037 2.3634 10.5 3.35158 10.5H12.5002C13.4881 10.5 14.3004 10.2037 14.9146 9.61934C15.5365 9.02763 15.8518 8.22441 15.8518 7.23232C15.8517 6.84949 15.8387 6.47188 15.8134 6.11004V6.11002Z" fill="black"/>
</svg>
