<svg width="15" height="20" viewBox="0 0 15 20" fill="none" xmlns="http://www.w3.org/2000/svg">
<path fill-rule="evenodd" clip-rule="evenodd" d="M13.0665 18.3438C12.8265 18.605 12.499 18.75 12.1428 18.75H2.50028C2.14528 18.75 1.81654 18.605 1.57779 18.3425C1.33778 18.08 1.22403 17.7412 1.25654 17.3862L2.26779 6.24999H3.57152V8.12499C3.57152 8.46999 3.85152 8.74999 4.19653 8.74999C4.54152 8.74999 4.82153 8.46999 4.82153 8.12499V6.24999H9.82153V8.12499C9.82153 8.46999 10.1015 8.74999 10.4465 8.74999C10.7915 8.74999 11.0715 8.46999 11.0715 8.12499V6.24999H12.3753L13.3878 17.3875C13.4203 17.7412 13.3065 18.0812 13.0665 18.3437V18.3438ZM4.82154 3.75C4.82154 2.37125 5.94277 1.25 7.32153 1.25C7.99278 1.25 8.62153 1.50875 9.09278 1.97875C9.56404 2.44875 9.82154 3.07875 9.82154 3.75V5H4.82154V3.75ZM14.634 17.2738L13.5703 5.56875C13.5403 5.24625 13.2703 5 12.9465 5H11.0715V3.75C11.0715 2.745 10.6828 1.80125 9.97654 1.095C9.27029 0.38875 8.32654 0 7.32153 0C5.25404 0 3.57153 1.6825 3.57153 3.75V5H1.69653C1.3728 5 1.10279 5.24625 1.07405 5.56875L0.010278 17.2738C-0.053472 17.9713 0.181538 18.6688 0.654028 19.1863C1.12653 19.7038 1.79904 20 2.50027 20H12.144C12.8453 20 13.5178 19.7038 13.9903 19.1863C14.4628 18.6688 14.6965 17.9713 14.634 17.2738H14.634Z" fill="black"/>
</svg>
